<svg xmlns="http://www.w3.org/2000/svg" viewBox="0 0 40 40" fill="none" role="img" aria-label="SMM Turk">
  <defs>
    <linearGradient id="bg" x1="4" y1="2" x2="36" y2="38" gradientUnits="userSpaceOnUse">
      <stop offset="0%" stop-color="#FF2D42"/>
      <stop offset="40%" stop-color="#E30A17"/>
      <stop offset="100%" stop-color="#7A040D"/>
    </linearGradient>
    <linearGradient id="shine" x1="20" y1="0" x2="20" y2="24" gradientUnits="userSpaceOnUse">
      <stop offset="0%" stop-color="#FFFFFF" stop-opacity="0.32"/>
      <stop offset="100%" stop-color="#FFFFFF" stop-opacity="0"/>
    </linearGradient>
    <linearGradient id="mark" x1="11" y1="9" x2="29" y2="31" gradientUnits="userSpaceOnUse">
      <stop offset="0%" stop-color="#FFFFFF"/>
      <stop offset="100%" stop-color="#E8E8EA"/>
    </linearGradient>
    <filter id="glow" x="-20%" y="-20%" width="140%" height="140%">
      <feGaussianBlur stdDeviation="1.2" result="blur"/>
      <feMerge><feMergeNode in="blur"/><feMergeNode in="SourceGraphic"/></feMerge>
    </filter>
  </defs>
  <rect width="40" height="40" rx="12" fill="url(#bg)"/>
  <rect width="40" height="40" rx="12" fill="url(#shine)"/>
  <rect x="1.5" y="1.5" width="37" height="37" rx="10.5" stroke="#FFFFFF" stroke-opacity="0.18" stroke-width="1"/>
  <rect x="5" y="5" width="30" height="30" rx="8" stroke="#FFFFFF" stroke-opacity="0.06" stroke-width="0.5"/>
  <g filter="url(#glow)">
    <path d="M26.4 12.2C24.2 10 21.2 8.8 18 8.8c-4.9 0-8.5 2.9-8.5 6.7 0 2.7 1.6 4.6 4.9 5.6l3.4 1c2.8.8 3.8 1.7 3.8 3.4 0 1.9-1.8 3.3-4.7 3.3-2.5 0-4.7-1-6.1-2.8" stroke="url(#mark)" stroke-width="3.4" stroke-linecap="round" stroke-linejoin="round"/>
    <path d="M24.4 10.8L27.8 10.8L27.8 7.4" stroke="url(#mark)" stroke-width="2.5" stroke-linecap="round" stroke-linejoin="round"/>
    <circle cx="27.8" cy="6.6" r="1.4" fill="#FFFFFF"/>
  </g>
</svg>
