<svg xmlns="http://www.w3.org/2000/svg" viewBox="0 0 40 40" fill="none" role="img" aria-label="SMM Turk">
  <defs>
    <linearGradient id="bg" x1="6" y1="2" x2="34" y2="38" gradientUnits="userSpaceOnUse">
      <stop offset="0%" stop-color="#FF2438"/>
      <stop offset="45%" stop-color="#E30A17"/>
      <stop offset="100%" stop-color="#8E050F"/>
    </linearGradient>
    <linearGradient id="shine" x1="20" y1="0" x2="20" y2="22" gradientUnits="userSpaceOnUse">
      <stop offset="0%" stop-color="#FFFFFF" stop-opacity="0.28"/>
      <stop offset="100%" stop-color="#FFFFFF" stop-opacity="0"/>
    </linearGradient>
    <linearGradient id="mark" x1="12" y1="10" x2="28" y2="30" gradientUnits="userSpaceOnUse">
      <stop offset="0%" stop-color="#FFFFFF"/>
      <stop offset="100%" stop-color="#F4F4F5"/>
    </linearGradient>
  </defs>
  <rect width="40" height="40" rx="11" fill="url(#bg)"/>
  <rect width="40" height="40" rx="11" fill="url(#shine)"/>
  <rect x="1.5" y="1.5" width="37" height="37" rx="9.5" stroke="#FFFFFF" stroke-opacity="0.14" stroke-width="1"/>
  <!-- S monogram + upward growth cue -->
  <path
    d="M26.2 12.4C24.1 10.2 21.2 9 18 9c-4.8 0-8.4 2.8-8.4 6.6 0 2.6 1.5 4.5 4.8 5.5l3.4 1c2.8.8 3.8 1.7 3.8 3.3 0 1.9-1.8 3.2-4.6 3.2-2.5 0-4.6-1-6-2.7"
    stroke="url(#mark)"
    stroke-width="3.35"
    stroke-linecap="round"
    stroke-linejoin="round"
  />
  <path
    d="M24.2 11.2L27.4 11.2L27.4 8"
    stroke="url(#mark)"
    stroke-width="2.6"
    stroke-linecap="round"
    stroke-linejoin="round"
  />
  <circle cx="27.4" cy="7.2" r="1.35" fill="#FFFFFF"/>
</svg>
